<?xml version="1.0" encoding="UTF-8" standalone="no"?>
<!DOCTYPE svg PUBLIC "-//W3C//DTD SVG 1.1//EN"
 "http://www.w3.org/Graphics/SVG/1.1/DTD/svg11.dtd">
<!-- Generated by graphviz version 2.43.0 (0)
 -->
<!-- Title: plan Pages: 1 -->
<svg width="266pt" height="308pt"
 viewBox="0.00 0.00 266.00 308.03" xmlns="http://www.w3.org/2000/svg" xmlns:xlink="http://www.w3.org/1999/xlink">
<g id="graph0" class="graph" transform="scale(1 1) rotate(0) translate(4 304.03)">
<title>plan</title>
<polygon fill="white" stroke="transparent" points="-4,4 -4,-304.03 262,-304.03 262,4 -4,4"/>
<!-- swarm&#45;0.5.0.0:exe:swarm -->
<g id="node1" class="node">
<title>swarm&#45;0.5.0.0:exe:swarm</title>
<path fill="none" stroke="brown" stroke-width="2" d="M217,-36C217,-36 41,-36 41,-36 35,-36 29,-30 29,-24 29,-24 29,-12 29,-12 29,-6 35,0 41,0 41,0 217,0 217,0 223,0 229,-6 229,-12 229,-12 229,-24 229,-24 229,-30 223,-36 217,-36"/>
<text text-anchor="middle" x="129" y="-14.3" font-family="Times,serif" font-size="14.00">swarm&#45;0.5.0.0:exe:swarm</text>
</g>
<!-- swarm&#45;0.5.0.0:lib:swarm&#45;web -->
<g id="node2" class="node">
<title>swarm&#45;0.5.0.0:lib:swarm&#45;web</title>
<path fill="none" stroke="gray" stroke-width="2" d="M230.5,-80C230.5,-80 27.5,-80 27.5,-80 21.5,-80 15.5,-74 15.5,-68 15.5,-68 15.5,-56 15.5,-56 15.5,-50 21.5,-44 27.5,-44 27.5,-44 230.5,-44 230.5,-44 236.5,-44 242.5,-50 242.5,-56 242.5,-56 242.5,-68 242.5,-68 242.5,-74 236.5,-80 230.5,-80"/>
<text text-anchor="middle" x="129" y="-58.3" font-family="Times,serif" font-size="14.00">swarm&#45;0.5.0.0:lib:swarm&#45;web</text>
</g>
<!-- swarm&#45;0.5.0.0:exe:swarm&#45;&gt;swarm&#45;0.5.0.0:lib:swarm&#45;web -->
<g id="edge1" class="edge">
<title>swarm&#45;0.5.0.0:exe:swarm&#45;&gt;swarm&#45;0.5.0.0:lib:swarm&#45;web</title>
<path fill="none" stroke="brown" d="M129,-36.15C129,-36.31 129,-36.47 129,-36.63"/>
<polygon fill="brown" stroke="brown" points="125.5,-33.89 129,-43.89 132.5,-33.89 125.5,-33.89"/>
</g>
<!-- swarm&#45;0.5.0.0 -->
<g id="node3" class="node">
<title>swarm&#45;0.5.0.0</title>
<path fill="none" stroke="blue" stroke-width="2" d="M176.5,-124.01C176.5,-124.01 81.5,-124.01 81.5,-124.01 75.5,-124.01 69.5,-118.01 69.5,-112.01 69.5,-112.01 69.5,-100.01 69.5,-100.01 69.5,-94.01 75.5,-88.01 81.5,-88.01 81.5,-88.01 176.5,-88.01 176.5,-88.01 182.5,-88.01 188.5,-94.01 188.5,-100.01 188.5,-100.01 188.5,-112.01 188.5,-112.01 188.5,-118.01 182.5,-124.01 176.5,-124.01"/>
<text text-anchor="middle" x="129" y="-102.31" font-family="Times,serif" font-size="14.00">swarm&#45;0.5.0.0</text>
</g>
<!-- swarm&#45;0.5.0.0:lib:swarm&#45;web&#45;&gt;swarm&#45;0.5.0.0 -->
<g id="edge2" class="edge">
<title>swarm&#45;0.5.0.0:lib:swarm&#45;web&#45;&gt;swarm&#45;0.5.0.0</title>
<path fill="none" stroke="gray" d="M129,-80.16C129,-80.32 129,-80.48 129,-80.64"/>
<polygon fill="gray" stroke="gray" points="125.5,-77.9 129,-87.9 132.5,-77.9 125.5,-77.9"/>
</g>
<!-- swarm&#45;0.5.0.0:lib:swarm&#45;engine -->
<g id="node4" class="node">
<title>swarm&#45;0.5.0.0:lib:swarm&#45;engine</title>
<path fill="none" stroke="gray" stroke-width="2" d="M240,-168.01C240,-168.01 18,-168.01 18,-168.01 12,-168.01 6,-162.01 6,-156.01 6,-156.01 6,-144.01 6,-144.01 6,-138.01 12,-132.01 18,-132.01 18,-132.01 240,-132.01 240,-132.01 246,-132.01 252,-138.01 252,-144.01 252,-144.01 252,-156.01 252,-156.01 252,-162.01 246,-168.01 240,-168.01"/>
<text text-anchor="middle" x="129" y="-146.31" font-family="Times,serif" font-size="14.00">swarm&#45;0.5.0.0:lib:swarm&#45;engine</text>
</g>
<!-- swarm&#45;0.5.0.0&#45;&gt;swarm&#45;0.5.0.0:lib:swarm&#45;engine -->
<g id="edge3" class="edge">
<title>swarm&#45;0.5.0.0&#45;&gt;swarm&#45;0.5.0.0:lib:swarm&#45;engine</title>
<path fill="none" stroke="blue" d="M129,-124.16C129,-124.32 129,-124.48 129,-124.64"/>
<polygon fill="blue" stroke="blue" points="125.5,-121.9 129,-131.9 132.5,-121.9 125.5,-121.9"/>
</g>
<!-- swarm&#45;0.5.0.0:lib:swarm&#45;scenario -->
<g id="node5" class="node">
<title>swarm&#45;0.5.0.0:lib:swarm&#45;scenario</title>
<path fill="none" stroke="gray" stroke-width="2" d="M246,-212.02C246,-212.02 12,-212.02 12,-212.02 6,-212.02 0,-206.02 0,-200.02 0,-200.02 0,-188.02 0,-188.02 0,-182.02 6,-176.02 12,-176.02 12,-176.02 246,-176.02 246,-176.02 252,-176.02 258,-182.02 258,-188.02 258,-188.02 258,-200.02 258,-200.02 258,-206.02 252,-212.02 246,-212.02"/>
<text text-anchor="middle" x="129" y="-190.32" font-family="Times,serif" font-size="14.00">swarm&#45;0.5.0.0:lib:swarm&#45;scenario</text>
</g>
<!-- swarm&#45;0.5.0.0:lib:swarm&#45;engine&#45;&gt;swarm&#45;0.5.0.0:lib:swarm&#45;scenario -->
<g id="edge4" class="edge">
<title>swarm&#45;0.5.0.0:lib:swarm&#45;engine&#45;&gt;swarm&#45;0.5.0.0:lib:swarm&#45;scenario</title>
<path fill="none" stroke="gray" d="M129,-168.17C129,-168.33 129,-168.49 129,-168.65"/>
<polygon fill="gray" stroke="gray" points="125.5,-165.91 129,-175.91 132.5,-165.91 125.5,-165.91"/>
</g>
<!-- swarm&#45;0.5.0.0:lib:swarm&#45;lang -->
<g id="node6" class="node">
<title>swarm&#45;0.5.0.0:lib:swarm&#45;lang</title>
<path fill="none" stroke="gray" stroke-width="2" d="M231.5,-256.02C231.5,-256.02 26.5,-256.02 26.5,-256.02 20.5,-256.02 14.5,-250.02 14.5,-244.02 14.5,-244.02 14.5,-232.02 14.5,-232.02 14.5,-226.02 20.5,-220.02 26.5,-220.02 26.5,-220.02 231.5,-220.02 231.5,-220.02 237.5,-220.02 243.5,-226.02 243.5,-232.02 243.5,-232.02 243.5,-244.02 243.5,-244.02 243.5,-250.02 237.5,-256.02 231.5,-256.02"/>
<text text-anchor="middle" x="129" y="-234.32" font-family="Times,serif" font-size="14.00">swarm&#45;0.5.0.0:lib:swarm&#45;lang</text>
</g>
<!-- swarm&#45;0.5.0.0:lib:swarm&#45;scenario&#45;&gt;swarm&#45;0.5.0.0:lib:swarm&#45;lang -->
<g id="edge5" class="edge">
<title>swarm&#45;0.5.0.0:lib:swarm&#45;scenario&#45;&gt;swarm&#45;0.5.0.0:lib:swarm&#45;lang</title>
<path fill="none" stroke="gray" d="M129,-212.17C129,-212.33 129,-212.49 129,-212.65"/>
<polygon fill="gray" stroke="gray" points="125.5,-209.91 129,-219.91 132.5,-209.91 125.5,-209.91"/>
</g>
<!-- swarm&#45;0.5.0.0:lib:swarm&#45;util -->
<g id="node7" class="node">
<title>swarm&#45;0.5.0.0:lib:swarm&#45;util</title>
<path fill="none" stroke="gray" stroke-width="2" d="M228,-300.03C228,-300.03 30,-300.03 30,-300.03 24,-300.03 18,-294.03 18,-288.03 18,-288.03 18,-276.03 18,-276.03 18,-270.03 24,-264.03 30,-264.03 30,-264.03 228,-264.03 228,-264.03 234,-264.03 240,-270.03 240,-276.03 240,-276.03 240,-288.03 240,-288.03 240,-294.03 234,-300.03 228,-300.03"/>
<text text-anchor="middle" x="129" y="-278.33" font-family="Times,serif" font-size="14.00">swarm&#45;0.5.0.0:lib:swarm&#45;util</text>
</g>
<!-- swarm&#45;0.5.0.0:lib:swarm&#45;lang&#45;&gt;swarm&#45;0.5.0.0:lib:swarm&#45;util -->
<g id="edge6" class="edge">
<title>swarm&#45;0.5.0.0:lib:swarm&#45;lang&#45;&gt;swarm&#45;0.5.0.0:lib:swarm&#45;util</title>
<path fill="none" stroke="gray" d="M129,-256.17C129,-256.33 129,-256.49 129,-256.65"/>
<polygon fill="gray" stroke="gray" points="125.5,-253.92 129,-263.92 132.5,-253.92 125.5,-253.92"/>
</g>
</g>
</svg>
