<?xml version="1.0" encoding="UTF-8" standalone="no"?>
<!DOCTYPE svg PUBLIC "-//W3C//DTD SVG 1.1//EN"
 "http://www.w3.org/Graphics/SVG/1.1/DTD/svg11.dtd">
<!-- Generated by graphviz version 2.43.0 (0)
 -->
<!-- Title: plan Pages: 1 -->
<svg width="278pt" height="476pt"
 viewBox="0.00 0.00 277.50 476.00" xmlns="http://www.w3.org/2000/svg" xmlns:xlink="http://www.w3.org/1999/xlink">
<g id="graph0" class="graph" transform="scale(1 1) rotate(0) translate(4 472)">
<title>plan</title>
<polygon fill="white" stroke="transparent" points="-4,4 -4,-472 273.5,-472 273.5,4 -4,4"/>
<!-- swarm -->
<g id="node1" class="node">
<title>swarm</title>
<path fill="none" stroke="brown" stroke-width="2" d="M168,-36C168,-36 127,-36 127,-36 121,-36 115,-30 115,-24 115,-24 115,-12 115,-12 115,-6 121,0 127,0 127,0 168,0 168,0 174,0 180,-6 180,-12 180,-12 180,-24 180,-24 180,-30 174,-36 168,-36"/>
<text text-anchor="middle" x="147.5" y="-14.3" font-family="Times,serif" font-size="14.00">swarm</text>
</g>
<!-- swarm&#45;web -->
<g id="node2" class="node">
<title>swarm&#45;web</title>
<path fill="none" stroke="gray" stroke-width="2" d="M184.5,-108C184.5,-108 110.5,-108 110.5,-108 104.5,-108 98.5,-102 98.5,-96 98.5,-96 98.5,-84 98.5,-84 98.5,-78 104.5,-72 110.5,-72 110.5,-72 184.5,-72 184.5,-72 190.5,-72 196.5,-78 196.5,-84 196.5,-84 196.5,-96 196.5,-96 196.5,-102 190.5,-108 184.5,-108"/>
<text text-anchor="middle" x="147.5" y="-86.3" font-family="Times,serif" font-size="14.00">swarm&#45;web</text>
</g>
<!-- swarm&#45;&gt;swarm&#45;web -->
<g id="edge1" class="edge">
<title>swarm&#45;&gt;swarm&#45;web</title>
<path fill="none" stroke="brown" d="M147.5,-36.3C147.5,-44.02 147.5,-53.29 147.5,-61.89"/>
<polygon fill="brown" stroke="brown" points="144,-61.9 147.5,-71.9 151,-61.9 144,-61.9"/>
</g>
<!-- swarm&#45;doc -->
<g id="node3" class="node">
<title>swarm&#45;doc</title>
<path fill="none" stroke="gray" stroke-width="2" d="M127.5,-180C127.5,-180 57.5,-180 57.5,-180 51.5,-180 45.5,-174 45.5,-168 45.5,-168 45.5,-156 45.5,-156 45.5,-150 51.5,-144 57.5,-144 57.5,-144 127.5,-144 127.5,-144 133.5,-144 139.5,-150 139.5,-156 139.5,-156 139.5,-168 139.5,-168 139.5,-174 133.5,-180 127.5,-180"/>
<text text-anchor="middle" x="92.5" y="-158.3" font-family="Times,serif" font-size="14.00">swarm&#45;doc</text>
</g>
<!-- swarm&#45;web&#45;&gt;swarm&#45;doc -->
<g id="edge2" class="edge">
<title>swarm&#45;web&#45;&gt;swarm&#45;doc</title>
<path fill="none" stroke="gray" d="M133.9,-108.3C127.38,-116.61 119.43,-126.72 112.25,-135.86"/>
<polygon fill="gray" stroke="gray" points="109.37,-133.87 105.94,-143.9 114.87,-138.19 109.37,-133.87"/>
</g>
<!-- swarm&#45;tui -->
<g id="node4" class="node">
<title>swarm&#45;tui</title>
<path fill="none" stroke="gray" stroke-width="2" d="M235,-180C235,-180 170,-180 170,-180 164,-180 158,-174 158,-168 158,-168 158,-156 158,-156 158,-150 164,-144 170,-144 170,-144 235,-144 235,-144 241,-144 247,-150 247,-156 247,-156 247,-168 247,-168 247,-174 241,-180 235,-180"/>
<text text-anchor="middle" x="202.5" y="-158.3" font-family="Times,serif" font-size="14.00">swarm&#45;tui</text>
</g>
<!-- swarm&#45;web&#45;&gt;swarm&#45;tui -->
<g id="edge3" class="edge">
<title>swarm&#45;web&#45;&gt;swarm&#45;tui</title>
<path fill="none" stroke="gray" d="M161.1,-108.3C167.62,-116.61 175.57,-126.72 182.75,-135.86"/>
<polygon fill="gray" stroke="gray" points="180.13,-138.19 189.06,-143.9 185.63,-133.87 180.13,-138.19"/>
</g>
<!-- swarm&#45;engine -->
<g id="node5" class="node">
<title>swarm&#45;engine</title>
<path fill="none" stroke="gray" stroke-width="2" d="M194,-252C194,-252 101,-252 101,-252 95,-252 89,-246 89,-240 89,-240 89,-228 89,-228 89,-222 95,-216 101,-216 101,-216 194,-216 194,-216 200,-216 206,-222 206,-228 206,-228 206,-240 206,-240 206,-246 200,-252 194,-252"/>
<text text-anchor="middle" x="147.5" y="-230.3" font-family="Times,serif" font-size="14.00">swarm&#45;engine</text>
</g>
<!-- swarm&#45;doc&#45;&gt;swarm&#45;engine -->
<g id="edge4" class="edge">
<title>swarm&#45;doc&#45;&gt;swarm&#45;engine</title>
<path fill="none" stroke="gray" d="M106.1,-180.3C112.62,-188.61 120.57,-198.72 127.75,-207.86"/>
<polygon fill="gray" stroke="gray" points="125.13,-210.19 134.06,-215.9 130.63,-205.87 125.13,-210.19"/>
</g>
<!-- swarm&#45;tui&#45;&gt;swarm&#45;engine -->
<g id="edge5" class="edge">
<title>swarm&#45;tui&#45;&gt;swarm&#45;engine</title>
<path fill="none" stroke="gray" d="M188.9,-180.3C182.38,-188.61 174.43,-198.72 167.25,-207.86"/>
<polygon fill="gray" stroke="gray" points="164.37,-205.87 160.94,-215.9 169.87,-210.19 164.37,-205.87"/>
</g>
<!-- swarm&#45;scenario -->
<g id="node6" class="node">
<title>swarm&#45;scenario</title>
<path fill="none" stroke="gray" stroke-width="2" d="M200,-324C200,-324 95,-324 95,-324 89,-324 83,-318 83,-312 83,-312 83,-300 83,-300 83,-294 89,-288 95,-288 95,-288 200,-288 200,-288 206,-288 212,-294 212,-300 212,-300 212,-312 212,-312 212,-318 206,-324 200,-324"/>
<text text-anchor="middle" x="147.5" y="-302.3" font-family="Times,serif" font-size="14.00">swarm&#45;scenario</text>
</g>
<!-- swarm&#45;engine&#45;&gt;swarm&#45;scenario -->
<g id="edge6" class="edge">
<title>swarm&#45;engine&#45;&gt;swarm&#45;scenario</title>
<path fill="none" stroke="gray" d="M147.5,-252.3C147.5,-260.02 147.5,-269.29 147.5,-277.89"/>
<polygon fill="gray" stroke="gray" points="144,-277.9 147.5,-287.9 151,-277.9 144,-277.9"/>
</g>
<!-- swarm&#45;topography -->
<g id="node7" class="node">
<title>swarm&#45;topography</title>
<path fill="none" stroke="gray" stroke-width="2" d="M139,-396C139,-396 12,-396 12,-396 6,-396 0,-390 0,-384 0,-384 0,-372 0,-372 0,-366 6,-360 12,-360 12,-360 139,-360 139,-360 145,-360 151,-366 151,-372 151,-372 151,-384 151,-384 151,-390 145,-396 139,-396"/>
<text text-anchor="middle" x="75.5" y="-374.3" font-family="Times,serif" font-size="14.00">swarm&#45;topography</text>
</g>
<!-- swarm&#45;scenario&#45;&gt;swarm&#45;topography -->
<g id="edge7" class="edge">
<title>swarm&#45;scenario&#45;&gt;swarm&#45;topography</title>
<path fill="none" stroke="gray" d="M129.7,-324.3C120.9,-332.86 110.12,-343.34 100.5,-352.7"/>
<polygon fill="gray" stroke="gray" points="97.82,-350.42 93.09,-359.9 102.7,-355.43 97.82,-350.42"/>
</g>
<!-- swarm&#45;lang -->
<g id="node8" class="node">
<title>swarm&#45;lang</title>
<path fill="none" stroke="gray" stroke-width="2" d="M257.5,-396C257.5,-396 181.5,-396 181.5,-396 175.5,-396 169.5,-390 169.5,-384 169.5,-384 169.5,-372 169.5,-372 169.5,-366 175.5,-360 181.5,-360 181.5,-360 257.5,-360 257.5,-360 263.5,-360 269.5,-366 269.5,-372 269.5,-372 269.5,-384 269.5,-384 269.5,-390 263.5,-396 257.5,-396"/>
<text text-anchor="middle" x="219.5" y="-374.3" font-family="Times,serif" font-size="14.00">swarm&#45;lang</text>
</g>
<!-- swarm&#45;scenario&#45;&gt;swarm&#45;lang -->
<g id="edge8" class="edge">
<title>swarm&#45;scenario&#45;&gt;swarm&#45;lang</title>
<path fill="none" stroke="gray" d="M165.3,-324.3C174.1,-332.86 184.88,-343.34 194.5,-352.7"/>
<polygon fill="gray" stroke="gray" points="192.3,-355.43 201.91,-359.9 197.18,-350.42 192.3,-355.43"/>
</g>
<!-- swarm&#45;util -->
<g id="node9" class="node">
<title>swarm&#45;util</title>
<path fill="none" stroke="gray" stroke-width="2" d="M182,-468C182,-468 113,-468 113,-468 107,-468 101,-462 101,-456 101,-456 101,-444 101,-444 101,-438 107,-432 113,-432 113,-432 182,-432 182,-432 188,-432 194,-438 194,-444 194,-444 194,-456 194,-456 194,-462 188,-468 182,-468"/>
<text text-anchor="middle" x="147.5" y="-446.3" font-family="Times,serif" font-size="14.00">swarm&#45;util</text>
</g>
<!-- swarm&#45;topography&#45;&gt;swarm&#45;util -->
<g id="edge9" class="edge">
<title>swarm&#45;topography&#45;&gt;swarm&#45;util</title>
<path fill="none" stroke="gray" d="M93.3,-396.3C102.1,-404.86 112.88,-415.34 122.5,-424.7"/>
<polygon fill="gray" stroke="gray" points="120.3,-427.43 129.91,-431.9 125.18,-422.42 120.3,-427.43"/>
</g>
<!-- swarm&#45;lang&#45;&gt;swarm&#45;util -->
<g id="edge10" class="edge">
<title>swarm&#45;lang&#45;&gt;swarm&#45;util</title>
<path fill="none" stroke="gray" d="M201.7,-396.3C192.9,-404.86 182.12,-415.34 172.5,-424.7"/>
<polygon fill="gray" stroke="gray" points="169.82,-422.42 165.09,-431.9 174.7,-427.43 169.82,-422.42"/>
</g>
</g>
</svg>
