<?xml version="1.0" encoding="UTF-8" standalone="no"?>
<!DOCTYPE svg PUBLIC "-//W3C//DTD SVG 1.1//EN"
 "http://www.w3.org/Graphics/SVG/1.1/DTD/svg11.dtd">
<!-- Generated by graphviz version 2.43.0 (0)
 -->
<!-- Title: plan Pages: 1 -->
<svg width="210pt" height="476pt"
 viewBox="0.00 0.00 209.50 476.00" xmlns="http://www.w3.org/2000/svg" xmlns:xlink="http://www.w3.org/1999/xlink">
<g id="graph0" class="graph" transform="scale(1 1) rotate(0) translate(4 472)">
<title>plan</title>
<polygon fill="white" stroke="transparent" points="-4,4 -4,-472 205.5,-472 205.5,4 -4,4"/>
<!-- swarm -->
<g id="node1" class="node">
<title>swarm</title>
<path fill="none" stroke="brown" stroke-width="2" d="M122.5,-36C122.5,-36 81.5,-36 81.5,-36 75.5,-36 69.5,-30 69.5,-24 69.5,-24 69.5,-12 69.5,-12 69.5,-6 75.5,0 81.5,0 81.5,0 122.5,0 122.5,0 128.5,0 134.5,-6 134.5,-12 134.5,-12 134.5,-24 134.5,-24 134.5,-30 128.5,-36 122.5,-36"/>
<text text-anchor="middle" x="102" y="-14.3" font-family="Times,serif" font-size="14.00">swarm</text>
</g>
<!-- swarm&#45;web -->
<g id="node2" class="node">
<title>swarm&#45;web</title>
<path fill="none" stroke="gray" stroke-width="2" d="M139,-108C139,-108 65,-108 65,-108 59,-108 53,-102 53,-96 53,-96 53,-84 53,-84 53,-78 59,-72 65,-72 65,-72 139,-72 139,-72 145,-72 151,-78 151,-84 151,-84 151,-96 151,-96 151,-102 145,-108 139,-108"/>
<text text-anchor="middle" x="102" y="-86.3" font-family="Times,serif" font-size="14.00">swarm&#45;web</text>
</g>
<!-- swarm&#45;&gt;swarm&#45;web -->
<g id="edge1" class="edge">
<title>swarm&#45;&gt;swarm&#45;web</title>
<path fill="none" stroke="brown" d="M102,-36.3C102,-44.02 102,-53.29 102,-61.89"/>
<polygon fill="brown" stroke="brown" points="98.5,-61.9 102,-71.9 105.5,-61.9 98.5,-61.9"/>
</g>
<!-- swarm&#45;doc -->
<g id="node3" class="node">
<title>swarm&#45;doc</title>
<path fill="none" stroke="gray" stroke-width="2" d="M82,-180C82,-180 12,-180 12,-180 6,-180 0,-174 0,-168 0,-168 0,-156 0,-156 0,-150 6,-144 12,-144 12,-144 82,-144 82,-144 88,-144 94,-150 94,-156 94,-156 94,-168 94,-168 94,-174 88,-180 82,-180"/>
<text text-anchor="middle" x="47" y="-158.3" font-family="Times,serif" font-size="14.00">swarm&#45;doc</text>
</g>
<!-- swarm&#45;web&#45;&gt;swarm&#45;doc -->
<g id="edge2" class="edge">
<title>swarm&#45;web&#45;&gt;swarm&#45;doc</title>
<path fill="none" stroke="gray" d="M88.4,-108.3C81.88,-116.61 73.93,-126.72 66.75,-135.86"/>
<polygon fill="gray" stroke="gray" points="63.87,-133.87 60.44,-143.9 69.37,-138.19 63.87,-133.87"/>
</g>
<!-- swarm&#45;tui -->
<g id="node4" class="node">
<title>swarm&#45;tui</title>
<path fill="none" stroke="gray" stroke-width="2" d="M189.5,-180C189.5,-180 124.5,-180 124.5,-180 118.5,-180 112.5,-174 112.5,-168 112.5,-168 112.5,-156 112.5,-156 112.5,-150 118.5,-144 124.5,-144 124.5,-144 189.5,-144 189.5,-144 195.5,-144 201.5,-150 201.5,-156 201.5,-156 201.5,-168 201.5,-168 201.5,-174 195.5,-180 189.5,-180"/>
<text text-anchor="middle" x="157" y="-158.3" font-family="Times,serif" font-size="14.00">swarm&#45;tui</text>
</g>
<!-- swarm&#45;web&#45;&gt;swarm&#45;tui -->
<g id="edge3" class="edge">
<title>swarm&#45;web&#45;&gt;swarm&#45;tui</title>
<path fill="none" stroke="gray" d="M115.6,-108.3C122.12,-116.61 130.07,-126.72 137.25,-135.86"/>
<polygon fill="gray" stroke="gray" points="134.63,-138.19 143.56,-143.9 140.13,-133.87 134.63,-138.19"/>
</g>
<!-- swarm&#45;engine -->
<g id="node5" class="node">
<title>swarm&#45;engine</title>
<path fill="none" stroke="gray" stroke-width="2" d="M148.5,-252C148.5,-252 55.5,-252 55.5,-252 49.5,-252 43.5,-246 43.5,-240 43.5,-240 43.5,-228 43.5,-228 43.5,-222 49.5,-216 55.5,-216 55.5,-216 148.5,-216 148.5,-216 154.5,-216 160.5,-222 160.5,-228 160.5,-228 160.5,-240 160.5,-240 160.5,-246 154.5,-252 148.5,-252"/>
<text text-anchor="middle" x="102" y="-230.3" font-family="Times,serif" font-size="14.00">swarm&#45;engine</text>
</g>
<!-- swarm&#45;doc&#45;&gt;swarm&#45;engine -->
<g id="edge4" class="edge">
<title>swarm&#45;doc&#45;&gt;swarm&#45;engine</title>
<path fill="none" stroke="gray" d="M60.6,-180.3C67.12,-188.61 75.07,-198.72 82.25,-207.86"/>
<polygon fill="gray" stroke="gray" points="79.63,-210.19 88.56,-215.9 85.13,-205.87 79.63,-210.19"/>
</g>
<!-- swarm&#45;tui&#45;&gt;swarm&#45;engine -->
<g id="edge5" class="edge">
<title>swarm&#45;tui&#45;&gt;swarm&#45;engine</title>
<path fill="none" stroke="gray" d="M143.4,-180.3C136.88,-188.61 128.93,-198.72 121.75,-207.86"/>
<polygon fill="gray" stroke="gray" points="118.87,-205.87 115.44,-215.9 124.37,-210.19 118.87,-205.87"/>
</g>
<!-- swarm&#45;scenario -->
<g id="node6" class="node">
<title>swarm&#45;scenario</title>
<path fill="none" stroke="gray" stroke-width="2" d="M154.5,-324C154.5,-324 49.5,-324 49.5,-324 43.5,-324 37.5,-318 37.5,-312 37.5,-312 37.5,-300 37.5,-300 37.5,-294 43.5,-288 49.5,-288 49.5,-288 154.5,-288 154.5,-288 160.5,-288 166.5,-294 166.5,-300 166.5,-300 166.5,-312 166.5,-312 166.5,-318 160.5,-324 154.5,-324"/>
<text text-anchor="middle" x="102" y="-302.3" font-family="Times,serif" font-size="14.00">swarm&#45;scenario</text>
</g>
<!-- swarm&#45;engine&#45;&gt;swarm&#45;scenario -->
<g id="edge6" class="edge">
<title>swarm&#45;engine&#45;&gt;swarm&#45;scenario</title>
<path fill="none" stroke="gray" d="M102,-252.3C102,-260.02 102,-269.29 102,-277.89"/>
<polygon fill="gray" stroke="gray" points="98.5,-277.9 102,-287.9 105.5,-277.9 98.5,-277.9"/>
</g>
<!-- swarm&#45;lang -->
<g id="node7" class="node">
<title>swarm&#45;lang</title>
<path fill="none" stroke="gray" stroke-width="2" d="M140,-396C140,-396 64,-396 64,-396 58,-396 52,-390 52,-384 52,-384 52,-372 52,-372 52,-366 58,-360 64,-360 64,-360 140,-360 140,-360 146,-360 152,-366 152,-372 152,-372 152,-384 152,-384 152,-390 146,-396 140,-396"/>
<text text-anchor="middle" x="102" y="-374.3" font-family="Times,serif" font-size="14.00">swarm&#45;lang</text>
</g>
<!-- swarm&#45;scenario&#45;&gt;swarm&#45;lang -->
<g id="edge7" class="edge">
<title>swarm&#45;scenario&#45;&gt;swarm&#45;lang</title>
<path fill="none" stroke="gray" d="M102,-324.3C102,-332.02 102,-341.29 102,-349.89"/>
<polygon fill="gray" stroke="gray" points="98.5,-349.9 102,-359.9 105.5,-349.9 98.5,-349.9"/>
</g>
<!-- swarm&#45;util -->
<g id="node8" class="node">
<title>swarm&#45;util</title>
<path fill="none" stroke="gray" stroke-width="2" d="M136.5,-468C136.5,-468 67.5,-468 67.5,-468 61.5,-468 55.5,-462 55.5,-456 55.5,-456 55.5,-444 55.5,-444 55.5,-438 61.5,-432 67.5,-432 67.5,-432 136.5,-432 136.5,-432 142.5,-432 148.5,-438 148.5,-444 148.5,-444 148.5,-456 148.5,-456 148.5,-462 142.5,-468 136.5,-468"/>
<text text-anchor="middle" x="102" y="-446.3" font-family="Times,serif" font-size="14.00">swarm&#45;util</text>
</g>
<!-- swarm&#45;lang&#45;&gt;swarm&#45;util -->
<g id="edge8" class="edge">
<title>swarm&#45;lang&#45;&gt;swarm&#45;util</title>
<path fill="none" stroke="gray" d="M102,-396.3C102,-404.02 102,-413.29 102,-421.89"/>
<polygon fill="gray" stroke="gray" points="98.5,-421.9 102,-431.9 105.5,-421.9 98.5,-421.9"/>
</g>
</g>
</svg>
